PathFileType	4	(X/Y/Z)	/Users/mathieubourgeois/Desktop/Analyse/Traitement/Sujet_02/Data/Transformed_Sujet_02_velo_80.trc
DataRate	CameraRate	NumFrames	NumMarkers	Units	OrigDataRate	OrigDataStartFrame	OrigNumFrames
120.000000	120.000000	5	36	mm	120.000000	471	1886
Frame#	Time	RFHD			RANE			STRN			LANI			LKNE			T10			RHUM			RWRB			C7			LFWT			LTOE			RTOE			LWRA			LBWT			RBWT			RFWT			LKNI			RKNI			RKNE			LANE			RANI			LHEE			RHEE			LHUM			LRAD			RRAD			RWRA			LWRB			LFHD			LBHD			RBHD			RSHO			LSHO			CLAV			LCAR			RCAR			
		X1	Y1	Z1	X2	Y2	Z2	X3	Y3	Z3	X4	Y4	Z4	X5	Y5	Z5	X6	Y6	Z6	X7	Y7	Z7	X8	Y8	Z8	X9	Y9	Z9	X10	Y10	Z10	X11	Y11	Z11	X12	Y12	Z12	X13	Y13	Z13	X14	Y14	Z14	X15	Y15	Z15	X16	Y16	Z16	X17	Y17	Z17	X18	Y18	Z18	X19	Y19	Z19	X20	Y20	Z20	X21	Y21	Z21	X22	Y22	Z22	X23	Y23	Z23	X24	Y24	Z24	X25	Y25	Z25	X26	Y26	Z26	X27	Y27	Z27	X28	Y28	Z28	X29	Y29	Z29	X30	Y30	Z30	X31	Y31	Z31	X32	Y32	Z32	X33	Y33	Z33	X34	Y34	Z34	X35	Y35	Z35	X36	Y36	Z36	

472	3.925	41.23355865478514	1487.397094726562	134.5227813720702	-359.85302734375	519.0203247070312	179.9849548339843	-220.4158172607422	1282.791381835938	24.31276321411122	-136.8647155761719	352.6627502441406	-75.04781341552739	-138.0553894042968	785.8070678710938	-145.5934448242188	-378.8684692382812	1523.693969726562	20.60341072082506	-48.97337341308597	1197.944580078125	217.0978240966796	177.4928283691406	1024.79345703125	165.6456756591797	-137.6748352050781	1585.925659179688	19.27672767639149	-402.1676940917969	1218.294311523438	-99.84573364257824	68.64046478271486	328.2863159179688	-140.0439758300782	-206.5166320800782	357.922119140625	152.6338958740234	217.0416870117188	1049.066650390625	-160.8330078125	-593.509033203125	1201.867553710938	-49.48263931274428	-597.8908081054688	1207.78466796875	71.79067993164048	-425.8147888183594	1232.97314453125	168.1127319335936	-93.33905029296875	759.2908935546875	-46.48879623413092	-58.69375610351564	840.57470703125	114.1926193237304	-110.792709350586	881.5830688476562	220.7292785644531	-159.0242309570312	337.6176147460938	-164.5914764404297	-331.8865051269531	524.5838623046875	93.76823425292962	-218.6569519042968	292.04638671875	-121.6561431884766	-437.0929260253906	529.5555419921875	126.3023223876952	-24.19961929321287	1214.666748046875	-171.9954681396485	34.5501289367676	1254.631225585938	-192.0861816406251	8.096492767333954	1247.031616210938	250.3185424804687	207.8800811767578	1058.236083984375	218.8439483642578	179.5877685546875	1024.596557617188	-100.1206436157227	56.57579040527344	1442.813842773438	-17.87188148498543	-26.0831127166748	1568.170043945312	-48.16633605957041	-23.88075447082521	1598.629028320312	107.8271942138671	-128.9585723876953	1527.286743164062	163.2183990478514	-112.8040390014648	1518.395263671875	-109.6515579223634	-119.9368133544922	1429.000122070312	23.94058799743642	293.6090087890625	1036.62939453125	-77.68395233154298	295.0179443359375	1017.897155761719	144.9201049804687	
473	3.933333333333333	41.63400268554686	1487.718505859375	135.2734374999999	-353.5592651367188	530.658447265625	180.5151062011718	-220.0161437988281	1283.09130859375	24.71799850463857	-141.7691802978516	341.7853088378906	-75.04188537597659	-146.9365997314453	775.3779907226562	-146.5260772705079	-378.5537414550781	1523.882934570312	21.18633842468248	-48.96936416625979	1197.807983398438	217.4710998535155	177.5599060058593	1024.751708984375	165.6524810791015	-137.3707885742188	1586.2548828125	20.40187835693348	-401.5741882324219	1218.094360351562	-100.3411560058595	62.57618331909181	316.2068786621094	-140.7850341796875	-200.1489410400391	369.8708190917969	152.8937225341796	217.135009765625	1049.074584960938	-160.8770751953125	-592.8839721679688	1202.153564453125	-49.49286651611342	-597.4330444335938	1207.917236328125	71.7377777099608	-425.498291015625	1233.440795898438	167.7776794433592	-102.9602355957031	748.6630859375	-48.26595687866217	-51.62421035766603	858.1119384765625	117.2213134765624	-105.4664077758789	892.5750122070312	221.3298645019531	-165.3981475830078	326.5540771484375	-165.0805053710938	-325.5396423339844	535.3318481445312	93.7121505737304	-224.9239959716797	281.6249389648438	-122.0034866333008	-430.9573059082031	541.192138671875	126.7808151245116	-23.882116317749	1215.010131835938	-171.4406890869141	34.74831008911135	1254.87451171875	-191.8633117675782	8.095376014709442	1246.837646484375	250.8262481689452	207.9073028564453	1058.125610351562	218.9459991455078	179.7063446044922	1024.6376953125	-100.1015548706055	56.8758659362793	1443.185791015625	-17.07829856872567	-25.98636817932128	1568.474731445312	-47.51095581054697	-23.5916213989258	1598.861328125	108.7821807861327	-128.9478607177735	1527.3125	164.3038177490233	-112.1843795776367	1518.793579101562	-108.840919494629	-119.58642578125	1429.323364257812	24.7999324798583	293.7173461914062	1036.563232421875	-77.74365234375001	295.0804138183594	1017.901550292969	144.902603149414	
474	3.941666666666666	41.92232513427733	1487.93603515625	136.134048461914	-347.2328186035156	542.2011108398438	180.9864807128906	-219.5461120605469	1283.386596679688	25.08525657653798	-142.9436798095703	334.0496215820312	-75.62471008300784	-155.8684387207031	765.5853881835938	-147.3971710205079	-378.1695251464844	1524.073852539062	21.88376998901353	-48.91426086425784	1197.612426757812	217.8780364990234	177.6473083496093	1024.716064453125	165.6496276855468	-136.955810546875	1586.600708007812	21.46326065063465	-401.0236511230469	1217.8603515625	-100.8051300048829	55.83293914794923	304.2327880859375	-141.4741821289063	-192.8027801513672	382.5319213867188	153.837173461914	217.2569427490235	1049.035278320312	-160.8968658447266	-592.2464599609375	1202.426635742188	-49.50436782836928	-596.9575805664062	1208.072387695312	71.73044586181626	-425.0439147949219	1233.93798828125	167.3723297119139	-111.8819351196289	738.3390502929688	-49.44421386718756	-45.1677703857422	866.8500366210938	115.2553100585937	-99.91746520996097	903.3761596679688	221.7973937988281	-172.3693695068359	316.27685546875	-165.6251831054688	-318.226318359375	546.9320068359375	94.48051452636712	-231.9477081298828	272.0575256347656	-122.4527053833008	-424.6727905273438	551.9384765625	127.098648071289	-23.57383918762205	1215.3388671875	-170.9118957519532	35.10468673706057	1255.09912109375	-191.5605468750001	8.087794303894013	1246.544677734375	251.4528503417968	207.9927978515625	1058.024291992188	219.0220642089843	179.8353271484375	1024.651000976562	-100.1136550903321	57.22169876098633	1443.49560546875	-16.22192764282235	-25.59260559082031	1568.902954101562	-46.61447143554697	-23.22601699829103	1599.121704101562	109.6815261840819	-128.8405151367188	1527.290283203125	165.4463500976561	-111.5460739135742	1519.133666992188	-107.9920806884767	-119.1523361206055	1429.644409179688	25.56212997436513	293.6810302734375	1036.495361328125	-78.03537750244142	295.1461791992188	1018.03076171875	144.6329040527343	
475	3.95	42.32899475097655	1488.233154296875	137.0671844482421	-340.6971435546875	552.9848022460938	181.329849243164	-219.0245513916016	1283.63623046875	25.47074890136708	-150.4383087158203	324.3103332519531	-76.2846374511719	-164.5911712646484	756.5158081054688	-148.2134704589845	-377.7816772460938	1524.197631835938	22.46802520751939	-48.85915756225589	1197.393310546875	218.4091033935546	177.7479705810547	1024.67431640625	165.6690063476562	-136.5264739990234	1586.9150390625	22.5954074859618	-400.5070190429688	1217.591796875	-101.2430725097657	48.53358459472658	292.37451171875	-142.1737213134766	-184.4384307861328	394.9878234863281	154.2067413330078	217.3992309570313	1049.007934570312	-160.8743438720703	-591.6151733398438	1202.676879882812	-49.35167312622085	-596.4034423828125	1208.28271484375	71.80531311035142	-424.542236328125	1234.446533203125	166.971237182617	-120.6232452392578	728.6914672851562	-50.61730194091803	-39.01126098632814	878.3801879882812	115.1767196655273	-94.68566894531253	913.9761352539062	222.2189941406249	-179.8506317138672	306.8226318359375	-166.2077941894532	-311.5817565917969	557.9003295898438	94.77964782714837	-239.6235961914062	263.4396667480469	-122.7591323852539	-418.2962951660156	561.7314453125	127.3290863037109	-23.209753036499	1215.689208984375	-170.3948669433595	35.47613906860354	1255.380981445312	-191.2119140625001	8.12051773071286	1246.277709960938	252.0827026367187	208.1035461425781	1057.9287109375	219.0723724365234	179.9290313720703	1024.645751953125	-100.1056747436524	57.6484375	1443.916015625	-15.3026714324952	-25.25511360168456	1569.271728515625	-45.62871170043955	-22.89713668823244	1599.378295898438	110.6875762939452	-128.7086181640625	1527.217041015625	166.5937957763671	-110.9364395141601	1519.452392578125	-107.0978546142579	-118.6921081542969	1429.93603515625	26.41442108154287	293.7740478515625	1036.453002929688	-78.06282043457033	295.2276000976562	1017.996032714844	144.609390258789	
476	3.958333333333333	42.64537811279295	1488.484741210938	137.9799194335937	-333.9354553222656	563.14208984375	181.6028747558593	-218.4631805419922	1283.798706054688	25.88305282592763	-158.0099792480469	315.7900390625	-76.90464019775393	-172.9838256835937	748.3239135742188	-149.0254974365235	-377.3264770507812	1524.271728515625	23.04051017761217	-48.81283950805667	1197.146484375	219.0470733642577	177.8484954833984	1024.654663085938	165.6806488037109	-136.0108032226562	1587.171508789062	23.59057617187489	-400.0032653808594	1217.300537109375	-101.7446441650392	40.64159393310548	280.7371826171875	-142.9176788330078	-175.2290954589844	407.8164367675781	154.7884674072265	217.4964141845703	1049.000610351562	-160.852783203125	-591.0167846679688	1202.97412109375	-49.11932373046889	-595.851318359375	1208.546020507812	71.99101257324205	-423.9119567871094	1235.01611328125	166.5755157470702	-129.3049774169922	719.8174438476562	-51.52028274536138	-33.571834564209	893.9721069335938	114.2949066162109	-89.75257873535159	924.3862915039062	222.5329895019531	-187.8525085449218	298.3092346191406	-166.8046112060547	-303.7562255859375	568.5142211914062	95.71987152099602	-247.8704071044922	255.9224090576172	-123.0691604614258	-411.7731628417969	570.530029296875	127.552505493164	-22.81008529663084	1216.046997070312	-169.7417755126954	35.80860137939455	1255.6591796875	-190.8698120117188	8.200349807739228	1245.986694335938	252.8109436035155	208.2238464355468	1057.8408203125	219.1495056152343	180.0057678222656	1024.619262695312	-100.1027450561524	58.05827331542969	1444.361938476562	-14.42047023773202	-24.82772064208984	1569.58984375	-44.6919059753419	-22.62482643127443	1599.615356445312	111.6627197265624	-128.6046295166016	1527.143798828125	167.6525115966796	-110.3257904052734	1519.7998046875	-106.1646423339845	-118.1705169677734	1430.149169921875	27.18962860107412	293.8638916015625	1036.404052734375	-78.07559967041017	295.2921142578125	1017.978149414062	144.5866241455078	
